# AST/ASF file generated using VICON BodyLanguage
# -----------------------------------------------
:version 1.10
:name VICON
:units
  mass 1.0
  length 0.45
  angle deg
:documentation
   .ast/.asf automatically generated from VICON data using
   VICON BodyBuilder and BodyLanguage model FoxedUp or BRILLIANT.MOD
:root
   order TX TY TZ RX RY RZ
   axis XYZ
   position 0 0 0  
   orientation 0 0 0 
:bonedata
  begin
     id 1 
     name lhipjoint
     direction 0.646821 -0.743844 0.168282 
     length 2.62284 
     axis 0 0 0  XYZ
  end
  begin
     id 2 
     name lfemur
     direction 0.34202 -0.939693 0  
     length 7.79098  
     axis 0 0 20  XYZ
    dof rx ry rz
    limits (-160.0 20.0)
           (-70.0 70.0)
           (-60.0 70.0)
  end
  begin
     id 3 
     name ltibia
     direction 0.34202 -0.939693 0   
     length 8.1986   
     axis 0 0 20   XYZ
    dof rx
    limits (-10.0 170.0)
  end
  begin
     id 4 
     name lfoot
     direction 0.0766762 -0.210666 0.974546   
     length 1.95107   
     axis -90 7.62852e-016 20   XYZ
    dof rx rz
    limits (-45.0 90.0)
           (-70.0 20.0)
  end
  begin
     id 5 
     name ltoes
     direction 1.53582e-011 -4.21539e-011 1   
     length 0.983514   
     axis -90 7.62852e-016 20   XYZ
    dof rx
    limits (-90.0 20.0)
  end
  begin
     id 6 
     name rhipjoint
     direction -0.658967 -0.733632 0.165972   
     length 2.65935  
     axis 0 0 0  XYZ 
  end
  begin
     id 7 
     name rfemur
     direction -0.34202 -0.939693 0   
     length 7.69405   
     axis 0 0 -20   XYZ
    dof rx ry rz
    limits (-160.0 20.0)
           (-70.0 70.0)
           (-70.0 60.0)
  end
  begin
     id 8 
     name rtibia
     direction -0.34202 -0.939693 0   
     length 8.15138   
     axis 0 0 -20   XYZ
    dof rx
    limits (-10.0 170.0)
 end
 begin
     id 9 
     name rfoot
     direction -0.0806473 -0.221577 0.971802   
     length 2.09362  
     axis -90 -7.62852e-016 -20   XYZ
    dof rx rz
    limits (-45.0 90.0)
           (-20.0 70.0)
  end
  begin
     id 10 
     name rtoes
     direction -1.53524e-011 -4.2203e-011 1   
     length 1.05224   
     axis -90 -7.62852e-016 -20   XYZ
    dof rx
    limits (-90.0 20.0)
  end
  begin
     id 11 
     name lowerback
     direction -0.0484271 0.997202 0.0569433   
     length 1.86801   
     axis 0 0 0   XYZ
    dof rx ry rz
    limits (-20.0 45.0)
           (-30.0 30.0)
           (-30.0 30.0)
  end
  begin
     id 12 
     name upperback
     direction 0.0148864 0.998882 0.0448682   
     length 1.86634   
     axis 0 0 0   XYZ
    dof rx ry rz
    limits (-20.0 45.0)
           (-30.0 30.0)
           (-30.0 30.0)
  end
  begin
     id 13 
     name thorax
     direction 0.0368776 0.99918 0.0167067   
     length 1.87554   
     axis 0 0 0   XYZ
    dof rx ry rz
    limits (-20.0 45.0)
           (-30.0 30.0)
           (-30.0 30.0)
  end
  begin
     id 14 
     name lowerneck
     direction -0.0200531 0.999751 0.00976032   
     length 1.82429   
     axis 0 0 0   XYZ
    dof rx ry rz
    limits (-20.0 45.0)
           (-30.0 30.0)
           (-30.0 30.0)
  end
  begin
     id 15 
     name upperneck
     direction 0.0113135 0.99728 -0.0728357   
     length 1.79098   
     axis 0 0 0   XYZ
    dof rx ry rz
    limits (-20.0 45.0)
           (-30.0 30.0)
           (-30.0 30.0)
  end
  begin
     id 16
     name head
     direction 0.00559662 0.999607 -0.0274604  
     length 1.88003  
     axis 0 0 0   XYZ
    dof rx ry rz
    limits (-20.0 45.0)
           (-30.0 30.0)
           (-30.0 30.0)
  end
  begin
     id 17 
     name lclavicle
     direction 0.931914 0.362632 -0.00585704  
     length 3.94155  
     axis 0 0 0   XYZ
    dof ry rz
    limits (-20.0 10.0)
           (0.0 20.0)
  end
  begin
     id 18 
     name lhumerus
     direction 1 -4.48969e-011 2.13403e-027   
     length 5.77473   
     axis 180 -30 -90   XYZ
    dof rx ry rz
    limits (-60.0 90.0)
           (-90.0 90.0)
           (-90.0 90.0)
  end
  begin
     id 19
     name lradius
     direction 1 -4.48969e-011 5.41017e-027   
     length 3.53732   
     axis 180 -30 -90   XYZ
    dof rx
    limits (-10.0 170.0)
  end
  begin
     id 20
     name lwrist
     direction 1 -4.48986e-011 1.36145e-026   
     length 1.76866   
     axis -8.75986e-015 90 90   XYZ
    dof ry
    limits (-180.0 0.0)
 end
  begin
     id 21 
     name lhand
     direction 1 -4.48703e-011 2.72291e-026   
     length 0.556229   
     axis -1.73745e-014 90 90   XYZ
    dof rx rz
    limits (-90.0 90.0)
           (-45.0 45.0)
  end
  begin
     id 22 
     name lfingers
     direction 1 -4.49204e-011 5.44582e-026   
     length 0.448446   
     axis -3.4749e-014 90 90   XYZ
    dof rx
    limits (0.0 90.0)
  end
  begin
     id 23
     name lthumb
     direction 0.707107 -6.34773e-011 0.707107   
     length 0.643881   
     axis -90 45 2.85299e-015   XYZ
    dof rx rz
    limits (-45.0 45.0)
           (-45.0 45.0)
  end
  begin
     id 24 
     name rclavicle
     direction -0.951782 0.300043 0.0639076   
     length 3.96398  
     axis 0 0 0   XYZ 
    dof ry rz
    limits (-10.0 20.0)
           (-20.0 0.0)
  end
  begin
     id 25 
     name rhumerus
     direction -1 -4.48967e-011 6.14867e-028  
     length 5.79581   
     axis 180 30 90   XYZ
    dof rx ry rz
    limits (-90.0 60.0)
           (-90.0 90.0)
           (-90.0 90.0)
  end
  begin
     id 26 
     name rradius
     direction -1 -4.48966e-011 9.26908e-027   
     length 3.37412   
     axis 180 30 90   XYZ
    dof rx
    limits (-10.0 170.0)
  end
  begin
     id 27 
     name rwrist
     direction -1 -4.48999e-011 1.36145e-026   
     length 1.68706   
     axis -8.75986e-015 -90 -90   XYZ
    dof ry
    limits (-180.0 0.0)
  end
  begin
     id 28
     name rhand
     direction -1 -4.49032e-011 2.72291e-026   
     length 0.680496   
     axis -1.73745e-014 -90 -90   XYZ
    dof rx rz
    limits (-90.0 90.0)
           (-45.0 45.0)
  end
  begin
     id 29
     name rfingers
     direction -1 -4.48876e-011 5.44582e-026   
     length 0.548633   
     axis -3.4749e-014 -90 -90   XYZ
    dof rx
    limits (0.0 90.0)
  end
  begin
     id 30
     name rthumb
     direction -0.707107 -6.34964e-011 0.707107   
     length 0.787731   
     axis -90 -45 -2.85299e-015   XYZ
    dof rx rz
    limits (-45.0 45.0)
           (-45.0 45.0)
  end
:hierarchy
  begin
    root lhipjoint rhipjoint lowerback
    lhipjoint lfemur
    lfemur ltibia
    ltibia lfoot
    lfoot ltoes
    rhipjoint rfemur
    rfemur rtibia
    rtibia rfoot
    rfoot rtoes
    lowerback upperback
    upperback thorax
    thorax lowerneck lclavicle rclavicle
    lowerneck upperneck
    upperneck head
    lclavicle lhumerus
    lhumerus lradius
    lradius lwrist
    lwrist lhand lthumb
    lhand lfingers
    rclavicle rhumerus
    rhumerus rradius
    rradius rwrist
    rwrist rhand rthumb
    rhand rfingers
  end

#!OML:ASF H:\Terrain\Patient Classification 1\PaulMetrics\March1\PaulMetrics.ASF
:FULLY-SPECIFIED
:DEGREES
362
root -4.30983 18.1722 13.3916 -154.339 -62.285 168.626
lowerback -6.46742 0.380707 -5.60443
upperback -5.45873 0.521065 0.111813
thorax -2.09577 0.334183 3.28538
lowerneck -4.59174 -3.85404 -3.32088
upperneck 13.7376 -5.55768 2.87699
head 5.0527 -2.81581 1.10364
rclavicle -2.75317e-014 -1.19271e-015
rhumerus -51.4623 22.3384 -92.0033
rradius 62.8435
rwrist -12.0431
rhand -13.3298 -33.8977
rfingers 7.12502
rthumb 12.7753 -63.4868
lclavicle -2.75317e-014 -1.19271e-015
lhumerus -58.0973 -7.13452 87.5581
lradius 41.1878
lwrist 2.81979
lhand -12.3867 -7.82616
lfingers 7.12502
lthumb 13.6843 21.7039
rfemur -19.9309 11.4411 27.4047
rtibia 29.4955
rfoot -20.0417 -12.6393
rtoes -10.1523
lfemur -44.916 -3.58233 -17.6035
ltibia 52.0098
lfoot -13.3384 5.05134
ltoes -12.6949
363
root -4.45212 18.1733 13.3312 -154.709 -61.3774 169.421
lowerback -6.74906 0.521942 -5.37596
upperback -5.61774 0.694751 0.0858529
thorax -2.11758 0.410332 3.13988
lowerneck -4.47092 -3.70979 -3.22563
upperneck 13.6396 -5.35726 2.77727
head 4.99017 -2.72077 1.07327
rclavicle -1.84e-014 -2.90226e-014
rhumerus -51.3195 22.5357 -91.8098
rradius 63.8317
rwrist -12.4696
rhand -13.0319 -33.8704
rfingers 7.12502
rthumb 13.0625 -63.4414
lclavicle -1.84e-014 -2.90226e-014
lhumerus -58.4461 -7.07508 87.577
lradius 40.8066
lwrist 2.90148
lhand -12.4713 -7.64777
lfingers 7.12502
lthumb 13.6028 21.8878
rfemur -19.382 11.7424 27.4718
rtibia 28.841
rfoot -20.0265 -12.3302
rtoes -10.3163
lfemur -45.4182 -3.69682 -17.2061
ltibia 49.3799
lfoot -13.2359 4.85912
ltoes -13.8093
364
root -4.59871 18.1737 13.2514 -155.242 -60.5658 169.874
lowerback -6.76958 0.551372 -5.5754
upperback -5.55823 0.748986 0.168624
thorax -2.0557 0.443258 3.34083
lowerneck -4.61276 -3.59056 -3.2805
upperneck 13.7127 -5.17022 2.65165
head 5.02909 -2.6378 1.05127
rclavicle -2.36181e-014 1.11319e-014
rhumerus -51.2125 22.9072 -91.6824
rradius 64.8198
rwrist -12.6554
rhand -12.8911 -34.1502
rfingers 7.12502
rthumb 13.1982 -63.7124
lclavicle -2.36181e-014 1.11319e-014
lhumerus -58.7636 -6.92178 87.631
lradius 40.49
lwrist 3.03182
lhand -12.7145 -7.8754
lfingers 7.12502
lthumb 13.3684 21.6757
rfemur -18.2426 12.1128 27.582
rtibia 28.2843
rfoot -20.4736 -12.1441
rtoes -8.04464
lfemur -45.1888 -3.65999 -17.1271
ltibia 46.5229
lfoot -12.9571 4.92926
ltoes -16.3233
365
root -4.74076 18.1787 13.2149 -155.067 -59.3032 170.323
lowerback -7.23988 0.718547 -5.34869
upperback -5.66811 0.967861 0.115456
thorax -1.92487 0.535984 3.17448
lowerneck -4.90942 -3.43979 -3.44004
upperneck 13.751 -4.93146 2.62336
head 5.08714 -2.52527 1.07719
rclavicle -2.05991e-014 -3.1408e-014
rhumerus -51.1377 23.3376 -91.5764
rradius 65.8306
rwrist -12.5291
rhand -13.1076 -34.3866
rfingers 7.12502
rthumb 12.9895 -63.9623
lclavicle -2.05991e-014 -3.1408e-014
lhumerus -58.9302 -6.68491 87.7097
lradius 40.2962
lwrist 2.98034
lhand -12.7059 -7.54916
lfingers 7.12502
lthumb 13.3767 22.0014
rfemur -18.1902 11.8551 27.1989
rtibia 27.8325
rfoot -20.6125 -11.0002
rtoes -6.58613
lfemur -45.7904 -3.44281 -17.1863
ltibia 43.5336
lfoot -12.402 5.27675
ltoes -18.5309
366
root -4.89117 18.1976 13.1448 -154.802 -58.5803 169.671
lowerback -7.07106 0.614303 -5.78005
upperback -5.50494 0.854435 0.00652311
thorax -1.84638 0.488721 3.29667
lowerneck -4.92258 -3.20474 -3.24812
upperneck 13.4816 -4.58326 2.41115
head 4.98586 -2.35424 1.00414
rclavicle -5.04913e-014 -3.53837e-014
rhumerus -50.9986 23.6624 -91.547
rradius 66.6624
rwrist -12.502
rhand -13.6741 -34.3718
rfingers 7.12502
rthumb 12.4433 -63.9814
lclavicle -5.04913e-014 -3.53837e-014
lhumerus -59.0477 -6.29939 87.4517
lradius 40.0883
lwrist 2.67838
lhand -11.7793 -7.19863
lfingers 7.12502
lthumb 14.2697 22.2911
rfemur -16.9902 11.7847 26.7186
rtibia 27.3252
rfoot -20.8262 -11.0392
rtoes -7.83296
lfemur -45.3157 -3.68321 -17.6139
ltibia 40.3993
lfoot -11.6333 5.21511
ltoes -21.8543
367
root -5.03317 18.2057 13.0581 -154.822 -57.5569 170
lowerback -7.43938 0.687474 -6.04813
upperback -5.60799 0.969884 -0.04666
thorax -1.76996 0.54622 3.4024
lowerneck -4.77087 -2.99879 -3.03295
upperneck 13.2883 -4.3115 2.33606
head 4.88613 -2.21583 0.966502
rclavicle 7.45691e-014 -1.94809e-014
rhumerus -50.9671 23.9011 -91.6515
rradius 67.4517
rwrist -12.7487
rhand -14.5242 -34.4362
rfingers 7.12502
rthumb 11.6237 -64.0938
lclavicle 7.45691e-014 -1.94809e-014
lhumerus -59.3602 -6.18123 87.1779
lradius 39.9368
lwrist 2.45769
lhand -10.297 -7.08234
lfingers 7.12502
lthumb 15.6976 22.3009
rfemur -16.3565 12.289 26.5544
rtibia 26.6473
rfoot -20.7747 -11.0958
rtoes -10.4671
lfemur -45.3708 -3.36144 -17.5864
ltibia 37.2655
lfoot -10.8015 4.90357
ltoes -24.2559
368
root -5.1766 18.2019 12.9847 -155.134 -56.662 170.544
lowerback -7.5643 0.770704 -6.03083
upperback -5.71484 1.07253 -0.0356861
thorax -1.82386 0.59608 3.41071
lowerneck -4.78099 -2.90192 -3.35118
upperneck 13.3091 -4.19928 2.69017
head 4.9049 -2.15607 1.13397
rclavicle -5.37961e-014 -3.57812e-015
rhumerus -50.9918 24.1554 -91.7014
rradius 68.2977
rwrist -12.953
rhand -15.0683 -34.5183
rfingers 7.12502
rthumb 11.0989 -64.2048
lclavicle -5.37961e-014 -3.57812e-015
lhumerus -59.6866 -6.22076 87.2055
lradius 39.6587
lwrist 2.01577
lhand -9.93075 -7.4395
lfingers 7.12502
lthumb 16.0503 21.9157
rfemur -15.6177 12.5113 26.5617
rtibia 25.8922
rfoot -20.7328 -10.6024
rtoes -10.9692
lfemur -45.2508 -3.13774 -17.3879
ltibia 34.0903
lfoot -10.1532 4.09418
ltoes -22.7604
369
root -5.32313 18.2068 12.8743 -155.68 -55.9915 170.359
lowerback -7.14142 0.741529 -6.77595
upperback -5.47846 1.07194 0.021241
thorax -1.83532 0.622772 3.88322
lowerneck -4.78693 -2.86466 -3.69684
upperneck 13.2105 -4.16162 3.07684
head 4.88927 -2.13031 1.31263
rclavicle -6.42323e-015 1.55052e-014
rhumerus -50.9891 24.1711 -91.6736
rradius 69.0786
rwrist -13.0548
rhand -15.4893 -34.4391
rfingers 7.12502
rthumb 10.6928 -64.1469
lclavicle -6.42323e-015 1.55052e-014
lhumerus -59.8078 -6.36942 87.3364
lradius 39.0922
lwrist 1.31608
lhand -11.3316 -8.13952
lfingers 7.12502
lthumb 14.701 21.3193
rfemur -13.6745 12.7886 26.5828
rtibia 25.0298
rfoot -20.8358 -10.6016
rtoes -10.8646
lfemur -44.0644 -3.06036 -17.5697
ltibia 30.9783
lfoot -9.86694 2.7605
ltoes -20.7221
370
root -5.47284 18.1952 12.8196 -155.001 -55.1372 170.245
lowerback -7.72167 0.837003 -6.69347
upperback -5.66042 1.20279 -0.22998
thorax -1.71254 0.669504 3.59075
lowerneck -4.66896 -2.79054 -3.46684
upperneck 13.0123 -4.07197 3.03372
head 4.79954 -2.078 1.27008
rclavicle -1.23495e-014 9.14409e-015
rhumerus -51.0369 24.1717 -91.7548
rradius 69.7667
rwrist -13.2094
rhand -16.2523 -33.9423
rfingers 7.12502
rthumb 9.95677 -63.6868
lclavicle -1.23495e-014 9.14409e-015
lhumerus -59.9204 -6.64551 87.2794
lradius 38.7855
lwrist 1.45623
lhand -11.248 -9.83548
lfingers 7.12502
lthumb 14.7815 19.6174
rfemur -13.4645 12.1726 26.0432
rtibia 24.2136
rfoot -20.3847 -9.69088
rtoes -12.8466
lfemur -44.4698 -3.40902 -17.5551
ltibia 27.933
lfoot -9.66236 2.37646
ltoes -21.0229
371
root -5.6225 18.1862 12.7329 -155.183 -54.4803 170.317
lowerback -7.82524 0.762761 -6.93356
upperback -5.59724 1.12854 -0.219755
thorax -1.58942 0.633777 3.73443
lowerneck -4.69386 -2.66271 -3.26095
upperneck 13.0234 -3.87619 2.7166
head 4.79066 -1.99073 1.14966
rclavicle -4.11857e-014 -2.54444e-014
rhumerus -51.1199 24.5858 -91.8056
rradius 70.4215
rwrist -12.9585
rhand -16.4145 -33.5438
rfingers 7.12502
rthumb 9.80031 -63.2958
lclavicle -4.11857e-014 -2.54444e-014
lhumerus -60.1814 -6.54358 87.1269
lradius 38.8796
lwrist 1.99176
lhand -9.63784 -13.8373
lfingers 7.12502
lthumb 16.3324 15.495
rfemur -12.2314 12.441 25.9415
rtibia 23.3129
rfoot -20.0747 -9.63065
rtoes -13.2364
lfemur -44.0085 -3.741 -17.3423
ltibia 25.0267
lfoot -9.61055 2.00896
ltoes -20.975
372
root -5.76802 18.1774 12.6563 -155.55 -53.9444 170.786
lowerback -7.85606 0.704554 -6.81745
upperback -5.62013 1.0438 -0.114801
thorax -1.58523 0.589317 3.77407
lowerneck -4.79387 -2.56209 -3.43741
upperneck 13.0969 -3.71909 2.68984
head 4.82811 -1.92325 1.17758
rclavicle 1.47349e-014 -1.63003e-014
rhumerus -51.1603 24.9245 -91.8094
rradius 70.9466
rwrist -12.3991
rhand -14.9825 -34.0624
rfingers 7.12502
rthumb 11.1816 -63.7444
lclavicle 1.47349e-014 -1.63003e-014
lhumerus -60.4217 -6.38669 87.0572
lradius 38.82
lwrist 1.85689
lhand -9.4033 -16.449
lfingers 7.12502
lthumb 16.5582 12.8646
rfemur -11.238 12.6107 26.0499
rtibia 22.5075
rfoot -19.7998 -9.36473
rtoes -12.7091
lfemur -43.77 -4.01055 -16.8437
ltibia 22.3036
lfoot -9.58446 1.71208
ltoes -19.7653
373
root -5.91251 18.1632 12.5815 -156.328 -53.5468 171.788
lowerback -7.71832 0.77627 -6.10653
upperback -5.70581 1.08115 -0.124368
thorax -1.73122 0.592183 3.36426
lowerneck -4.87474 -2.48196 -3.38316
upperneck 13.039 -3.61665 2.75363
head 4.82073 -1.86472 1.19368
rclavicle 9.92681e-015 9.54166e-015
rhumerus -51.1394 24.9429 -91.9957
rradius 71.3394
rwrist -12.2825
rhand -12.4651 -34.7665
rfingers 7.12502
rthumb 13.6087 -64.3017
lclavicle 9.92681e-015 9.54166e-015
lhumerus -60.526 -6.57466 86.8655
lradius 38.5386
lwrist 1.52771
lhand -9.97376 -13.6927
lfingers 7.12502
lthumb 16.0089 15.6658
rfemur -10.2479 12.6748 26.5497
rtibia 21.6171
rfoot -19.4013 -9.2106
rtoes -14.1315
lfemur -43.6016 -4.31987 -15.8948
ltibia 19.8134
lfoot -9.7979 1.60842
ltoes -20.8387
374
root -6.05927 18.1585 12.5046 -157.16 -53.1879 172.868
lowerback -7.78417 0.985648 -5.49893
upperback -5.69028 1.3308 -0.162606
thorax -1.68094 0.697306 2.9993
lowerneck -4.80223 -2.52605 -2.83505
upperneck 12.7383 -3.68648 2.53939
head 4.70448 -1.88281 1.03677
rclavicle -3.12092e-014 -6.75868e-015
rhumerus -50.9914 24.5443 -91.9857
rradius 71.719
rwrist -12.5249
rhand -12.2119 -34.6863
rfingers 7.12502
rthumb 13.8528 -64.205
lclavicle -3.12092e-014 -6.75868e-015
lhumerus -60.4374 -7.35601 86.9149
lradius 38.3292
lwrist 1.57452
lhand -10.4448 -9.3334
lfingers 7.12502
lthumb 15.5553 20.061
rfemur -9.34372 12.6601 27.0879
rtibia 20.7947
rfoot -19.0538 -8.81765
rtoes -15.7555
lfemur -43.4322 -4.97701 -14.6467
ltibia 17.5186
lfoot -10.0905 2.31454
ltoes -24.4618
375
root -6.20543 18.1538 12.4367 -157.593 -52.6976 173.546
lowerback -7.73924 1.23561 -5.00813
upperback -5.79334 1.61991 -0.350314
thorax -1.81461 0.825545 2.54376
lowerneck -4.48087 -2.61601 -2.4695
upperneck 12.3183 -3.85286 2.69616
head 4.5222 -1.94054 1.02311
rclavicle -3.40916e-014 3.18055e-014
rhumerus -51.031 24.0724 -92.1789
rradius 71.9724
rwrist -12.491
rhand -14.4395 -34.2542
rfingers 7.12502
rthumb 11.7053 -63.9072
lclavicle -3.40916e-014 3.18055e-014
lhumerus -60.5042 -8.35607 86.9427
lradius 38.2377
lwrist 1.90758
lhand -10.6427 -7.4349
lfingers 7.12502
lthumb 15.3647 21.9742
rfemur -8.56727 12.3271 27.2511
rtibia 20.0071
rfoot -18.6837 -7.85201
rtoes -15.5827
lfemur -43.4178 -6.11396 -13.322
ltibia 15.4776
lfoot -10.0923 3.7377
ltoes -25.9653
